<svg width="252" height="224" viewBox="0 0 252 224" fill="none" xmlns="http://www.w3.org/2000/svg">
<path d="M167.5 2.5C175.87 2.5 181.707 5.93272 185.52 10.292C188.545 13.7511 190.263 17.7505 191.061 21.001H198.949C200.855 20.914 203.899 21.0907 207.211 21.8525C210.562 22.6235 214.36 24.0328 217.545 26.5352C220.728 29.0363 223.094 32.4996 224.754 35.6826C226.42 38.8787 227.468 41.9727 227.932 43.9219L227.952 44.0049L227.966 44.0889L248.458 166.545C249.71 172.217 250.221 186.08 242.624 198.319C234.872 210.809 221.526 214.629 215.656 214.996L215.623 214.998L215.589 215L61.5889 220.5L61.5449 220.501H61.5C52.0895 220.501 39.9489 222.046 21.8076 212.198C14.1641 208.049 9.3891 201.23 6.51758 194.58C3.65041 187.94 2.59067 181.268 2.50098 177.055L2.49902 176.982L2.50195 176.91L7 53.9385C7.00926 49.6317 7.98127 38.9165 16.1875 30.2783C20.3754 25.87 25.6018 23.3512 30.3398 21.9746C35.0513 20.6058 39.433 20.3204 42.1465 20.5039L48.666 20.8887C49.7707 17.6625 51.8426 13.6677 55.0947 10.2217C59.1221 5.95435 65.0006 2.5 73 2.5C81.0252 2.5 86.5485 5.98173 90.0938 10.3662C92.8786 13.8103 94.4223 17.7759 95.1182 21.001H95.9424C96.7503 17.7406 98.5037 13.7334 101.599 10.2715C105.495 5.91338 111.453 2.5 120 2.5C128.553 2.5 134.374 5.92119 138.077 10.3301C140.972 13.7767 142.513 17.7516 143.162 21.001H144.388C145.105 17.7557 146.718 13.7725 149.643 10.3213C153.358 5.93694 159.126 2.5 167.5 2.5Z" fill="#00279D" stroke="white" stroke-width="5"/>
<path d="M237.5 182.5C241.1 178.5 240.667 170.167 240 166.5L222.998 63.9258L32 64.5002L48 161C48.8333 166.667 51.9 179.3 57.5 184.5C63.1 189.7 69.5 191.334 72 191.5C121.333 190.5 220.8 188.5 224 188.5C228 188.5 233 187.5 237.5 182.5Z" fill="#A3CFF9"/>
<path d="M69.5 196C57.5 196 50.1667 187.667 48 183.5C52.4 197.9 61.5 206.79 72.5 206.5C116.833 205.334 207.1 203 213.5 203C221.5 203 229.5 201 238 188.5C235.6 191.7 229.25 192.931 226 193C178.833 194 81.5 196 69.5 196Z" fill="#A3CFF9"/>
<path d="M69.5 196C57.5 196 50.1667 187.667 48 183.5C52.4 197.9 61.5 206.789 72.5 206.5C116.833 205.333 207.1 203 213.5 203C221.5 203 229.5 201 238 188.5C235.6 191.7 229.25 192.931 226 193C178.833 194 81.5 196 69.5 196Z" fill="#003ED5"/>
<path d="M29.5023 44.9982L31.0023 56.9982L221.799 56.5L220.002 45C218.402 33.8 208.002 29.6667 203.002 29H188.502C188.002 40 185.502 44 179.002 47.5C172.502 51 160.502 49 159.502 41.5C158.502 34 165.502 32.5 168.002 31.5C170.002 30.7 170.169 29.5 170.002 29H141.002C141.502 46 129.002 49 124.502 49C120.002 49 112.002 47.5 111.502 41.5C111.002 35.5 115.502 33.5 119.002 32.5C121.802 31.7 122.169 29.8333 122.002 29L93.5023 28.9982C93.5023 31.6655 92.6023 38.3 89.0023 43.5C84.5023 50 73.5023 50 70.5023 49C67.5023 48 63.5023 45.5 63.5023 40C63.5023 34.5 70.5023 32.5 72.5023 32C74.1023 31.6 74.1689 29.8321 74.0023 28.9982H45.0023C42.6689 28.6649 37.1023 29.0982 33.5023 33.4982C29.9023 37.8982 29.3356 42.9982 29.5023 44.9982Z" fill="#003ED5"/>
<path d="M59.5033 164.5L45.0033 84C43.4033 73.6 53.67 71 59.0033 71C100.003 70.8333 184.803 70.5 196.003 70.5C207.203 70.5 210.67 78.8333 211.003 83C214.837 105.167 223.003 152.1 225.003 162.5C227.003 172.9 219.17 175.833 215.003 176C175.17 176.5 92.2033 177.5 79.0033 177.5C65.8033 177.5 60.5033 168.833 59.5033 164.5Z" fill="white"/>
<path d="M22.0617 39.6088C22.2144 39.2796 22.3695 39.0858 22.4981 39C22.348 39.2001 22.2026 39.4031 22.0617 39.6088C21.6211 40.5593 21.201 42.6378 21.4981 46.5C21.8981 51.7 32.666 132.667 40 177.5C40.7361 182 46.9 198.8 52.5 204C33 197.5 29 189.5 25 182C21.8 176 21.3333 162.167 21.5 156L18 53C17.9988 50.4445 18.8233 44.3379 22.0617 39.6088Z" fill="#FFD100"/>
<path d="M50 108H108" stroke="#00279D" stroke-width="5"/>
<path d="M164 108H215" stroke="#00279D" stroke-width="5"/>
<path d="M57 147H119" stroke="#00279D" stroke-width="5"/>
<path d="M163.5 147H222" stroke="#00279D" stroke-width="5"/>
<path d="M59.5033 164.5L45.0033 84C43.4033 73.6 53.67 71 59.0033 71C100.003 70.8333 184.803 70.5 196.003 70.5C207.203 70.5 210.67 78.8333 211.003 83C214.837 105.167 223.003 152.1 225.003 162.5C227.003 172.9 219.17 175.833 215.003 176C175.17 176.5 92.2033 177.5 79.0033 177.5C65.8033 177.5 60.5033 168.833 59.5033 164.5Z" stroke="#00279D" stroke-width="5"/>
<path d="M65.5002 22.9998H60.5002C60.1669 20.6667 61.0002 15.2003 67.0002 12.0003C74.5002 8.00033 88.0002 11.5003 88.0002 27.5003C88.0002 43.5003 77.0002 44.0003 73.0002 44.0003C69.0002 44.0003 68.0002 38.0003 73.5002 37.0003C77.9002 36.2003 79.3335 32.3337 79.5002 30.5003C79.6669 27.0002 78.7002 19.7998 73.5002 18.9998C68.3002 18.1998 66.0002 21.3332 65.5002 22.9998Z" fill="white"/>
<path d="M65.5 23.0006H60.5C61.1666 19.6674 64.9998 13.6009 74.9998 16.0008C87.4998 19.0006 82.0002 41.0014 73.5 37.0011C77.9 36.2011 79.3333 32.3344 79.5 30.5011C79.6667 27.0009 78.7 19.8006 73.5 19.0006C68.3 18.2006 66 21.3339 65.5 23.0006Z" fill="#A3CFF9"/>
<path d="M114.063 22.9998H109.063C108.729 20.6667 109.563 15.2003 115.563 12.0003C123.063 8.00033 136.563 11.5003 136.563 27.5003C136.563 43.5003 125.563 44.0003 121.563 44.0003C117.563 44.0003 116.563 38.0003 122.063 37.0003C126.463 36.2003 127.896 32.3337 128.063 30.5003C128.229 27.0002 127.263 19.7998 122.063 18.9998C116.863 18.1998 114.563 21.3332 114.063 22.9998Z" fill="white"/>
<path d="M114.062 23.0006H109.062C109.729 19.6674 113.562 13.6009 123.562 16.0008C136.062 19.0006 130.563 41.0014 122.062 37.0011C126.462 36.2011 127.896 32.3344 128.062 30.5011C128.229 27.0009 127.263 19.8006 122.062 19.0006C116.863 18.2006 114.562 21.3339 114.062 23.0006Z" fill="#A3CFF9"/>
<path d="M160.063 22.9998H155.063C154.729 20.6667 155.563 15.2003 161.563 12.0003C169.063 8.00033 182.563 11.5003 182.563 27.5003C182.563 43.5003 171.563 44.0003 167.563 44.0003C163.563 44.0003 162.563 38.0003 168.063 37.0003C172.463 36.2003 173.896 32.3337 174.063 30.5003C174.229 27.0002 173.263 19.7998 168.063 18.9998C162.863 18.1998 160.563 21.3332 160.063 22.9998Z" fill="white"/>
<path d="M160.062 23.0006H155.062C155.729 19.6674 159.562 13.6009 169.562 16.0008C182.062 19.0006 176.563 41.0014 168.062 37.0011C172.462 36.2011 173.896 32.3344 174.062 30.5011C174.229 27.0009 173.263 19.8006 168.062 19.0006C162.863 18.2006 160.562 21.3339 160.062 23.0006Z" fill="#A3CFF9"/>
<line x1="103.476" y1="70.6529" x2="118.476" y2="177.653" stroke="#00279D" stroke-width="5"/>
<line x1="158.476" y1="70.6529" x2="173.476" y2="177.653" stroke="#00279D" stroke-width="5"/>
<path d="M111.5 156.5L101 84H166L169 100H127.5L129.457 109H166.283L169.174 127H131.848L133.85 138.5H175.35L178.5 156.5H111.5Z" fill="#FFBD3D" stroke="#00279D" stroke-width="5"/>
</svg>